<?xml version="1.0" encoding="UTF-8" standalone="no"?>
<!-- Created with Inkscape (http://www.inkscape.org/) -->

<svg
   version="1.1"
   width="573.89453"
   height="195.15143"
   id="svg3216"
   xmlns="http://www.w3.org/2000/svg"
   >
  <title
     id="title78616">logo</title>
  <defs
     id="defs3218">
    <rect
       x="70.276245"
       y="279.77899"
       width="331.4917"
       height="60.994469"
       id="rect71998" />
    <rect
       x="67.624306"
       y="330.16574"
       width="359.33701"
       height="79.558006"
       id="rect40015" />
  </defs>
  <metadata
     id="metadata3221">
    </metadata>
  <g
     id="layer1"
     transform="matrix(0.89671018,0,0,0.40656547,4.4835509e-7,-9.1022624e-6)"
     style="display:inline">
    <rect
       width="640"
       height="480"
       x="0"
       y="2.2888184e-05"
       id="rect3224"
       style="fill:none;fill-opacity:1;stroke:none;stroke-width:0;stroke-miterlimit:4;stroke-dasharray:none;stroke-opacity:1" />
  </g>
  <path
     style="fill:#ffffff;stroke:#ffffff;stroke-width:0.379962px;stroke-linecap:butt;stroke-linejoin:miter;stroke-opacity:1"
     d="m 301.97594,60.372301 c -17.86587,6.12849 -27.38153,13.48194 -39.04532,30.49525 22.78741,-17.70158 89.6021,11.473039 129.72495,-34.66951 -47.69703,37.85622 -73.31607,15.97198 -109.44089,22.51516 3.93388,-7.47416 7.96619,-11.05003 18.76126,-18.3409 z"
     id="path3049"
     />
  <path
     style="fill:#ffffff;stroke:#ffffff;stroke-width:0.379962px;stroke-linecap:butt;stroke-linejoin:miter;stroke-opacity:1"
     d="m 389.73244,131.52395 c 28.84955,-29.25905 64.78085,-17.78304 68.21693,15.81989 l 10.6809,-5.13895 c -4.42167,-29.0316 -49.30279,-55.430479 -78.89783,-10.68094 z"
     id="path3051"
     />
  <path
     style="fill:#ffffff;stroke:#ffffff;stroke-width:0.379962px;stroke-linecap:butt;stroke-linejoin:miter;stroke-opacity:1"
     d="m 375.62558,38.216961 c 83.8509,38.41199 129.41599,34.21539 136.03071,38.69316 -7.4919,0.67877 -10.12952,9.99715 -14.30842,17.7344 2.75578,-9.12562 2.62986,-9.58265 3.82902,-14.71148 -51.59782,-2.61 -83.16267,-18.07657 -125.55131,-41.71608 z"
     id="path3053"
     />
  <path
     style="fill:#ffffff;stroke:#ffffff;stroke-width:0.379962px;stroke-linecap:butt;stroke-linejoin:miter;stroke-opacity:1"
     d="m 453.21344,152.28126 c 18.24983,-18.87387 45.47763,-8.83136 54.41233,-22.97409 8.9347,-14.14273 -11.28553,-33.251959 -11.28553,-33.251959 0,0 12.23646,16.710679 2.41831,30.027529 -9.81816,13.31683 -30.60005,2.56535 -45.54511,26.19852 z"
     id="path3055"
     />
  <path
     style="fill:#ffffff;stroke:#ffffff;stroke-width:0.379962px;stroke-linecap:butt;stroke-linejoin:miter;stroke-opacity:1"
     d="m 246.04364,74.088791 11.48703,0.40303 c 63.05716,-59.18645 81.41698,-23.78017 140.06133,-32.0428 -59.21905,0.24037 -85.21367,-25.51816 -151.54836,31.63977 z"
     id="path3057"
     />
  <path
     style="fill:#ffffff;stroke:#ffffff;stroke-width:0.379962px;stroke-linecap:butt;stroke-linejoin:miter;stroke-opacity:1"
     d="m 262.53083,62.354801 -5.44122,11.68855 c -33.71923,8.53764 -72.47528,-3.74529 -115.67652,44.134419 28.40318,-47.363979 79.97674,-43.798049 121.11774,-55.822969 z"
     id="path3059"
     />
  <text
     xml:space="preserve"
     style="font-style:normal;font-weight:normal;font-size:40px;line-height:1.25;font-family:sans-serif;fill:#ffffff;fill-opacity:1;stroke:none"
     x="232.23706"
     y="181.90549"
     id="text2114"><tspan
       id="tspan2112"
       x="232.23706"
       y="181.90549" /></text>
  <text
     xml:space="preserve"
     style="font-style:normal;font-weight:normal;font-size:40px;line-height:1.25;font-family:sans-serif;fill:#ffffff;fill-opacity:1;stroke:none"
     x="39.971878"
     y="140.80054"
     id="text6458"><tspan
       id="tspan6456"
       x="39.971878"
       y="140.80054" /></text>
  <text
     xml:space="preserve"
     style="font-style:normal;font-weight:normal;font-size:40px;line-height:1.25;font-family:sans-serif;letter-spacing:3px;word-spacing:0px;fill:#ffffff;fill-opacity:1;stroke:none"
     x="17.430435"
     y="253.50769"
     id="text10224"><tspan
       id="tspan10222"
       x="17.430435"
       y="253.50769" /></text>
  <text
     xml:space="preserve"
     id="text71996"
     style="font-size:53.3333px;line-height:1.25;font-family:sans-serif;letter-spacing:8px;white-space:pre;shape-inside:url(#rect71998);fill:#ffffff;fill-opacity:1;stroke:none"
     transform="matrix(1,-0.16527024,0,1,-2.4590636,-136.15087)"><tspan
       x="70.275391"
       y="328.43688"
       id="tspan1740">CARSHOP</tspan></text>
</svg>
