<?xml version="1.0" encoding="UTF-8" standalone="no"?>
<!-- Created with Inkscape (http://www.inkscape.org/) -->

<svg
   version="1.1"
   width="640"
   height="480"
   id="svg3216"
   inkscape:version="1.1.2 (0a00cf5339, 2022-02-04, custom)"
   sodipodi:docname="speed-car-logo-4-onlygfx-com.svg"
   xmlns:inkscape="http://www.inkscape.org/namespaces/inkscape"
   xmlns:sodipodi="http://sodipodi.sourceforge.net/DTD/sodipodi-0.dtd"
   xmlns="http://www.w3.org/2000/svg"
   xmlns:svg="http://www.w3.org/2000/svg"
   xmlns:rdf="http://www.w3.org/1999/02/22-rdf-syntax-ns#"
   xmlns:cc="http://creativecommons.org/ns#"
   xmlns:dc="http://purl.org/dc/elements/1.1/">
  <sodipodi:namedview
     pagecolor="#ffffff"
     bordercolor="#666666"
     borderopacity="1"
     objecttolerance="10"
     gridtolerance="10"
     guidetolerance="10"
     inkscape:pageopacity="0"
     inkscape:pageshadow="2"
     inkscape:window-width="1920"
     inkscape:window-height="1017"
     id="namedview19"
     showgrid="false"
     inkscape:zoom="0.75416667"
     inkscape:cx="-25.856353"
     inkscape:cy="285.08287"
     inkscape:window-x="-8"
     inkscape:window-y="-8"
     inkscape:window-maximized="1"
     inkscape:current-layer="svg3216"
     inkscape:pagecheckerboard="0" />
  <defs
     id="defs3218">
    <rect
       x="70.276243"
       y="279.779"
       width="331.49171"
       height="60.99447"
       id="rect71998" />
    <rect
       x="67.624309"
       y="330.16574"
       width="359.33702"
       height="79.55801"
       id="rect40015" />
  </defs>
  <metadata
     id="metadata3221">
    <rdf:RDF>
      <cc:Work
         rdf:about="">
        <dc:format>image/svg+xml</dc:format>
        <dc:type
           rdf:resource="http://purl.org/dc/dcmitype/StillImage" />
        <dc:title />
      </cc:Work>
    </rdf:RDF>
  </metadata>
  <g
     id="layer1"
     transform="matrix(0.89671018,0,0,0.40656547,60.801605,131.03643)">
    <rect
       width="640"
       height="480"
       x="0"
       y="2.2888184e-05"
       id="rect3224"
       style="fill:#f2f2f2;fill-opacity:1;stroke:#397f2a;stroke-width:0;stroke-miterlimit:4;stroke-dasharray:none;stroke-opacity:1" />
  </g>
  <path
     style="fill:#000000;stroke:#000000;stroke-width:0.37996238px;stroke-linecap:butt;stroke-linejoin:miter;stroke-opacity:1"
     d="m 362.77754,190.06902 c -17.86587,6.12849 -27.38153,13.48194 -39.04532,30.49525 22.78741,-17.70158 89.6021,11.47304 129.72495,-34.66951 -47.69703,37.85622 -73.31607,15.97198 -109.44089,22.51516 3.93388,-7.47416 7.96619,-11.05003 18.76126,-18.3409 z"
     id="path3049"
     inkscape:connector-curvature="0"
     sodipodi:nodetypes="ccccc" />
  <path
     style="fill:#000000;stroke:#000000;stroke-width:0.37996238px;stroke-linecap:butt;stroke-linejoin:miter;stroke-opacity:1"
     d="m 450.53404,261.22067 c 28.84955,-29.25905 64.78085,-17.78304 68.21693,15.81989 l 10.6809,-5.13895 c -4.42167,-29.0316 -49.30279,-55.43048 -78.89783,-10.68094 z"
     id="path3051"
     inkscape:connector-curvature="0"
     sodipodi:nodetypes="cccc" />
  <path
     style="fill:#000000;stroke:#000000;stroke-width:0.37996238px;stroke-linecap:butt;stroke-linejoin:miter;stroke-opacity:1"
     d="m 436.42718,167.91368 c 83.8509,38.41199 129.41599,34.21539 136.03071,38.69316 -7.4919,0.67877 -10.12952,9.99715 -14.30842,17.7344 2.75578,-9.12562 2.62986,-9.58265 3.82902,-14.71148 -51.59782,-2.61 -83.16267,-18.07657 -125.55131,-41.71608 z"
     id="path3053"
     inkscape:connector-curvature="0"
     sodipodi:nodetypes="ccccc" />
  <path
     style="fill:#000000;stroke:#000000;stroke-width:0.37996238px;stroke-linecap:butt;stroke-linejoin:miter;stroke-opacity:1"
     d="m 514.01504,281.97798 c 18.24983,-18.87387 45.47763,-8.83136 54.41233,-22.97409 8.9347,-14.14273 -11.28553,-33.25196 -11.28553,-33.25196 0,0 12.23646,16.71068 2.41831,30.02753 -9.81816,13.31683 -30.60005,2.56535 -45.54511,26.19852 z"
     id="path3055"
     inkscape:connector-curvature="0"
     sodipodi:nodetypes="czczc" />
  <path
     style="fill:#000000;stroke:#000000;stroke-width:0.37996238px;stroke-linecap:butt;stroke-linejoin:miter;stroke-opacity:1"
     d="m 306.84524,203.78551 11.48703,0.40303 c 63.05716,-59.18645 81.41698,-23.78017 140.06133,-32.0428 -59.21905,0.24037 -85.21367,-25.51816 -151.54836,31.63977 z"
     id="path3057"
     inkscape:connector-curvature="0"
     sodipodi:nodetypes="cccc" />
  <path
     style="fill:#000000;stroke:#000000;stroke-width:0.37996238px;stroke-linecap:butt;stroke-linejoin:miter;stroke-opacity:1"
     d="m 323.33243,192.05152 -5.44122,11.68855 c -33.71923,8.53764 -72.47528,-3.74529 -115.67652,44.13442 28.40318,-47.36398 79.97674,-43.79805 121.11774,-55.82297 z"
     id="path3059"
     inkscape:connector-curvature="0"
     sodipodi:nodetypes="cccc" />
  <text
     xml:space="preserve"
     style="font-style:normal;font-weight:normal;font-size:40px;line-height:1.25;font-family:sans-serif;fill:#000000;fill-opacity:1;stroke:none"
     x="293.03867"
     y="311.6022"
     id="text2114"><tspan
       sodipodi:role="line"
       id="tspan2112"></tspan></text>
  <text
     xml:space="preserve"
     style="font-style:normal;font-weight:normal;font-size:40px;line-height:1.25;font-family:sans-serif;fill:#000000;fill-opacity:1;stroke:none"
     x="100.77348"
     y="270.49725"
     id="text6458"><tspan
       sodipodi:role="line"
       id="tspan6456"></tspan></text>
  <text
     xml:space="preserve"
     style="font-style:normal;font-weight:normal;font-size:40px;line-height:1.25;font-family:sans-serif;letter-spacing:3px;word-spacing:0px;fill:#000000;fill-opacity:1;stroke:none"
     x="78.23204"
     y="383.20441"
     id="text10224"><tspan
       sodipodi:role="line"
       id="tspan10222"
       x="78.23204"
       y="383.20441" /></text>
  <text
     xml:space="preserve"
     id="text71996"
     style="font-size:53.3333px;line-height:1.25;font-family:sans-serif;letter-spacing:8px;white-space:pre;shape-inside:url(#rect71998)"
     transform="matrix(1,-0.16527024,0,1,58.342541,-6.4541554)"><tspan
       x="70.275391"
       y="328.43688"
       id="tspan78614">CARSHOP</tspan></text>
</svg>
